<svg width="10" height="10" viewBox="0 0 10 10" fill="none" xmlns="http://www.w3.org/2000/svg">
<path d="M8.33398 0.833374H4.16732C3.70898 0.833374 3.33398 1.20837 3.33398 1.66671V5.83337C3.33398 6.29171 3.70898 6.66671 4.16732 6.66671H8.33398C8.79232 6.66671 9.16732 6.29171 9.16732 5.83337V1.66671C9.16732 1.20837 8.79232 0.833374 8.33398 0.833374ZM8.33398 5.83337H4.16732V1.66671H8.33398V5.83337Z" fill="#A3B18A"/>
<path d="M5.83398 8.33337H1.66732V4.16671H2.50065V3.33337H1.66732C1.20898 3.33337 0.833984 3.70837 0.833984 4.16671V8.33337C0.833984 8.79171 1.20898 9.16671 1.66732 9.16671H5.83398C6.29232 9.16671 6.66732 8.79171 6.66732 8.33337V7.50004H5.83398V8.33337Z" fill="#A3B18A"/>
</svg>
