<svg width="20" height="20" viewBox="0 0 20 20" fill="none" xmlns="http://www.w3.org/2000/svg">
<path d="M18.334 9.99996V16.6666C18.334 17.1087 18.1584 17.5326 17.8458 17.8451C17.5333 18.1577 17.1093 18.3333 16.6673 18.3333H3.33398C2.89196 18.3333 2.46803 18.1577 2.15547 17.8451C1.84291 17.5326 1.66732 17.1087 1.66732 16.6666V9.99996C1.4463 9.99996 1.23434 9.91216 1.07806 9.75588C0.921782 9.5996 0.833984 9.38764 0.833984 9.16663V6.66663C0.833984 6.2246 1.00958 5.80068 1.32214 5.48811C1.6347 5.17555 2.05862 4.99996 2.50065 4.99996H5.14232C5.04814 4.73224 5.00023 4.45043 5.00065 4.16663C5.00065 3.50358 5.26404 2.8677 5.73288 2.39886C6.20172 1.93002 6.83761 1.66663 7.50065 1.66663C8.33398 1.66663 9.06732 2.08329 9.52565 2.69996V2.69163L10.0007 3.33329L10.4756 2.69163V2.69996C10.934 2.08329 11.6673 1.66663 12.5006 1.66663C13.1637 1.66663 13.7996 1.93002 14.2684 2.39886C14.7373 2.8677 15.0006 3.50358 15.0006 4.16663C15.0011 4.45043 14.9532 4.73224 14.859 4.99996H17.5006C17.9427 4.99996 18.3666 5.17555 18.6792 5.48811C18.9917 5.80068 19.1673 6.2246 19.1673 6.66663V9.16663C19.1673 9.38764 19.0795 9.5996 18.9232 9.75588C18.767 9.91216 18.555 9.99996 18.334 9.99996ZM3.33398 16.6666H9.16732V9.99996H3.33398V16.6666ZM16.6673 16.6666V9.99996H10.834V16.6666H16.6673ZM7.50065 3.33329C7.27964 3.33329 7.06768 3.42109 6.91139 3.57737C6.75511 3.73365 6.66732 3.94561 6.66732 4.16663C6.66732 4.38764 6.75511 4.5996 6.91139 4.75588C7.06768 4.91216 7.27964 4.99996 7.50065 4.99996C7.72166 4.99996 7.93363 4.91216 8.08991 4.75588C8.24619 4.5996 8.33398 4.38764 8.33398 4.16663C8.33398 3.94561 8.24619 3.73365 8.08991 3.57737C7.93363 3.42109 7.72166 3.33329 7.50065 3.33329ZM12.5006 3.33329C12.2796 3.33329 12.0677 3.42109 11.9114 3.57737C11.7551 3.73365 11.6673 3.94561 11.6673 4.16663C11.6673 4.38764 11.7551 4.5996 11.9114 4.75588C12.0677 4.91216 12.2796 4.99996 12.5006 4.99996C12.7217 4.99996 12.9336 4.91216 13.0899 4.75588C13.2462 4.5996 13.334 4.38764 13.334 4.16663C13.334 3.94561 13.2462 3.73365 13.0899 3.57737C12.9336 3.42109 12.7217 3.33329 12.5006 3.33329ZM2.50065 6.66663V8.33329H9.16732V6.66663H2.50065ZM10.834 6.66663V8.33329H17.5006V6.66663H10.834Z" fill="#A3B18A"/>
</svg>
