<svg width="103" height="103" viewBox="0 0 103 103" fill="none" xmlns="http://www.w3.org/2000/svg">
<path d="M81.7562 21.0721C77.821 17.0985 73.1343 13.9478 67.9693 11.8037C62.8042 9.65953 57.264 8.56483 51.6716 8.58336C28.2391 8.58336 9.14119 27.6813 9.14119 51.1138C9.14119 58.6242 11.1154 65.92 14.8062 72.3575L8.79785 94.4167L31.3291 88.4942C37.552 91.8846 44.5474 93.6871 51.6716 93.6871C75.1041 93.6871 94.202 74.5892 94.202 51.1567C94.202 39.7838 89.7816 29.0975 81.7562 21.0721ZM51.6716 86.4771C45.3199 86.4771 39.097 84.7604 33.6466 81.5417L32.3591 80.7692L18.9691 84.2884L22.5312 71.2417L21.6729 69.9113C18.1432 64.2766 16.2693 57.7627 16.2654 51.1138C16.2654 31.6296 32.1445 15.7504 51.6287 15.7504C61.0704 15.7504 69.9541 19.4413 76.6062 26.1363C79.9005 29.4145 82.5112 33.3143 84.2867 37.6093C86.0621 41.9044 86.9671 46.5092 86.9491 51.1567C87.0349 70.6409 71.1558 86.4771 51.6716 86.4771ZM71.0699 60.0404C69.997 59.5254 64.7612 56.9505 63.817 56.5642C62.8299 56.2209 62.1433 56.0492 61.4137 57.0792C60.6841 58.1521 58.667 60.5555 58.0662 61.2421C57.4654 61.9717 56.8216 62.0575 55.7487 61.4996C54.6758 60.9846 51.2424 59.8259 47.2083 56.2209C44.0324 53.3884 41.9295 49.9121 41.2858 48.8392C40.6849 47.7663 41.1999 47.2084 41.7579 46.6504C42.2299 46.1784 42.8308 45.4059 43.3458 44.805C43.8608 44.2042 44.0754 43.7321 44.4187 43.0454C44.762 42.3159 44.5904 41.715 44.3329 41.2C44.0754 40.685 41.9295 35.4492 41.0712 33.3034C40.2129 31.2434 39.3116 31.5009 38.6679 31.4579H36.6079C35.8783 31.4579 34.7624 31.7154 33.7754 32.7884C32.8312 33.8613 30.0845 36.4363 30.0845 41.6721C30.0845 46.9079 33.9041 51.9721 34.4191 52.6588C34.9341 53.3884 41.9295 64.1175 52.5729 68.7096C55.1049 69.8255 57.0791 70.4692 58.6241 70.9413C61.1562 71.7567 63.4737 71.6279 65.3191 71.3704C67.3791 71.07 71.6279 68.7955 72.4862 66.3063C73.3874 63.8171 73.3874 61.7142 73.087 61.2421C72.7866 60.77 72.1429 60.5554 71.0699 60.0404Z" fill="white"/>
</svg>
