<svg width="103" height="103" viewBox="0 0 103 103" fill="none" xmlns="http://www.w3.org/2000/svg">
<path d="M33.4749 8.58337H69.5249C83.2583 8.58337 94.4166 19.7417 94.4166 33.475V69.525C94.4166 76.1267 91.7941 82.458 87.126 87.1261C82.4579 91.7942 76.1266 94.4167 69.5249 94.4167H33.4749C19.7416 94.4167 8.58325 83.2584 8.58325 69.525V33.475C8.58325 26.8734 11.2058 20.5421 15.8739 15.874C20.5419 11.2059 26.8732 8.58337 33.4749 8.58337ZM32.6166 17.1667C28.519 17.1667 24.5892 18.7945 21.6918 21.6919C18.7943 24.5893 17.1666 28.5191 17.1666 32.6167V70.3834C17.1666 78.9238 24.0762 85.8334 32.6166 85.8334H70.3833C74.4809 85.8334 78.4106 84.2056 81.3081 81.3082C84.2055 78.4107 85.8333 74.481 85.8333 70.3834V32.6167C85.8333 24.0763 78.9237 17.1667 70.3833 17.1667H32.6166ZM74.0312 23.6042C75.4539 23.6042 76.8185 24.1694 77.8245 25.1755C78.8306 26.1815 79.3958 27.546 79.3958 28.9688C79.3958 30.3916 78.8306 31.7561 77.8245 32.7621C76.8185 33.7682 75.4539 34.3334 74.0312 34.3334C72.6084 34.3334 71.2439 33.7682 70.2378 32.7621C69.2318 31.7561 68.6666 30.3916 68.6666 28.9688C68.6666 27.546 69.2318 26.1815 70.2378 25.1755C71.2439 24.1694 72.6084 23.6042 74.0312 23.6042ZM51.4999 30.0417C57.191 30.0417 62.649 32.3025 66.6733 36.3267C70.6975 40.3509 72.9583 45.8089 72.9583 51.5C72.9583 57.1911 70.6975 62.6492 66.6733 66.6734C62.649 70.6976 57.191 72.9584 51.4999 72.9584C45.8088 72.9584 40.3508 70.6976 36.3266 66.6734C32.3024 62.6492 30.0416 57.1911 30.0416 51.5C30.0416 45.8089 32.3024 40.3509 36.3266 36.3267C40.3508 32.3025 45.8088 30.0417 51.4999 30.0417ZM51.4999 38.625C48.0853 38.625 44.8105 39.9815 42.3959 42.396C39.9814 44.8106 38.6249 48.0854 38.6249 51.5C38.6249 54.9147 39.9814 58.1895 42.3959 60.604C44.8105 63.0186 48.0853 64.375 51.4999 64.375C54.9146 64.375 58.1894 63.0186 60.6039 60.604C63.0185 58.1895 64.3749 54.9147 64.3749 51.5C64.3749 48.0854 63.0185 44.8106 60.6039 42.396C58.1894 39.9815 54.9146 38.625 51.4999 38.625Z" fill="white"/>
</svg>
