<svg width="20" height="20" viewBox="0 0 20 20" fill="none" xmlns="http://www.w3.org/2000/svg">
<path d="M10.0007 1.66666C6.32573 1.66666 3.33406 4.65833 3.33406 8.33333C3.30906 13.7 9.2674 18 9.5174 18.1833C9.65906 18.2833 9.83406 18.3417 10.0007 18.3417C10.1674 18.3417 10.3424 18.2917 10.4841 18.1833C10.7341 18 16.6924 13.7083 16.6674 8.33333C16.6674 4.65833 13.6757 1.66666 10.0007 1.66666ZM10.0007 11.6667C8.15906 11.6667 6.6674 10.175 6.6674 8.33333C6.6674 6.49166 8.15906 5 10.0007 5C11.8424 5 13.3341 6.49166 13.3341 8.33333C13.3341 10.175 11.8424 11.6667 10.0007 11.6667Z" fill="#A3B18A"/>
</svg>
