<svg width="20" height="20" viewBox="0 0 20 20" fill="none" xmlns="http://www.w3.org/2000/svg">
<path d="M9.99935 1.66667C14.6018 1.66667 18.3327 5.3975 18.3327 10C18.3327 14.6025 14.6018 18.3333 9.99935 18.3333C5.39685 18.3333 1.66602 14.6025 1.66602 10C1.66602 5.3975 5.39685 1.66667 9.99935 1.66667ZM9.99935 3.33333C8.23124 3.33333 6.53555 4.03571 5.2853 5.28596C4.03506 6.5362 3.33268 8.23189 3.33268 10C3.33268 11.7681 4.03506 13.4638 5.2853 14.714C6.53555 15.9643 8.23124 16.6667 9.99935 16.6667C11.7675 16.6667 13.4632 15.9643 14.7134 14.714C15.9636 13.4638 16.666 11.7681 16.666 10C16.666 8.23189 15.9636 6.5362 14.7134 5.28596C13.4632 4.03571 11.7675 3.33333 9.99935 3.33333ZM9.99935 5C10.2035 5.00003 10.4005 5.07496 10.553 5.2106C10.7055 5.34623 10.803 5.53313 10.8268 5.73583L10.8327 5.83333V9.655L13.0885 11.9108C13.238 12.0608 13.3247 12.262 13.3312 12.4737C13.3377 12.6853 13.2633 12.8914 13.1233 13.0502C12.9833 13.209 12.7881 13.3086 12.5773 13.3287C12.3665 13.3487 12.156 13.2878 11.9885 13.1583L11.9102 13.0892L9.41018 10.5892C9.28066 10.4595 9.19748 10.2908 9.17352 10.1092L9.16602 10V5.83333C9.16602 5.61232 9.25381 5.40036 9.41009 5.24408C9.56637 5.0878 9.77833 5 9.99935 5Z" fill="#A3B18A"/>
</svg>
