<svg width="20" height="20" viewBox="0 0 20 20" fill="none" xmlns="http://www.w3.org/2000/svg">
<path d="M7.08398 5.41667C7.08398 5.30616 7.12788 5.20018 7.20602 5.12204C7.28416 5.0439 7.39014 5 7.50065 5H12.5007C12.6112 5 12.7171 5.0439 12.7953 5.12204C12.8734 5.20018 12.9173 5.30616 12.9173 5.41667C12.9173 5.52717 12.8734 5.63315 12.7953 5.71129C12.7171 5.78943 12.6112 5.83333 12.5007 5.83333H7.50065C7.39014 5.83333 7.28416 5.78943 7.20602 5.71129C7.12788 5.63315 7.08398 5.52717 7.08398 5.41667ZM6.66732 10C6.4463 10 6.23434 10.0878 6.07806 10.2441C5.92178 10.4004 5.83398 10.6123 5.83398 10.8333C5.83398 11.0543 5.92178 11.2663 6.07806 11.4226C6.23434 11.5789 6.4463 11.6667 6.66732 11.6667C6.88833 11.6667 7.10029 11.5789 7.25657 11.4226C7.41285 11.2663 7.50065 11.0543 7.50065 10.8333C7.50065 10.6123 7.41285 10.4004 7.25657 10.2441C7.10029 10.0878 6.88833 10 6.66732 10ZM13.334 10C13.113 10 12.901 10.0878 12.7447 10.2441C12.5884 10.4004 12.5007 10.6123 12.5007 10.8333C12.5007 11.0543 12.5884 11.2663 12.7447 11.4226C12.901 11.5789 13.113 11.6667 13.334 11.6667C13.555 11.6667 13.767 11.5789 13.9232 11.4226C14.0795 11.2663 14.1673 11.0543 14.1673 10.8333C14.1673 10.6123 14.0795 10.4004 13.9232 10.2441C13.767 10.0878 13.555 10 13.334 10ZM9.16732 10.8333C9.16732 10.6123 9.25512 10.4004 9.4114 10.2441C9.56768 10.0878 9.77964 10 10.0007 10C10.2217 10 10.4336 10.0878 10.5899 10.2441C10.7462 10.4004 10.834 10.6123 10.834 10.8333C10.834 11.0543 10.7462 11.2663 10.5899 11.4226C10.4336 11.5789 10.2217 11.6667 10.0007 11.6667C9.77964 11.6667 9.56768 11.5789 9.4114 11.4226C9.25512 11.2663 9.16732 11.0543 9.16732 10.8333ZM6.66732 13.3333C6.4463 13.3333 6.23434 13.4211 6.07806 13.5774C5.92178 13.7337 5.83398 13.9457 5.83398 14.1667C5.83398 14.3877 5.92178 14.5996 6.07806 14.7559C6.23434 14.9122 6.4463 15 6.66732 15C6.88833 15 7.10029 14.9122 7.25657 14.7559C7.41285 14.5996 7.50065 14.3877 7.50065 14.1667C7.50065 13.9457 7.41285 13.7337 7.25657 13.5774C7.10029 13.4211 6.88833 13.3333 6.66732 13.3333ZM9.16732 14.1667C9.16732 13.9457 9.25512 13.7337 9.4114 13.5774C9.56768 13.4211 9.77964 13.3333 10.0007 13.3333C10.2217 13.3333 10.4336 13.4211 10.5899 13.5774C10.7462 13.7337 10.834 13.9457 10.834 14.1667C10.834 14.3877 10.7462 14.5996 10.5899 14.7559C10.4336 14.9122 10.2217 15 10.0007 15C9.77964 15 9.56768 14.9122 9.4114 14.7559C9.25512 14.5996 9.16732 14.3877 9.16732 14.1667Z" fill="#A3B18A"/>
<path d="M11.3518 2.5H8.64685C7.73018 2.5 7.01518 2.5 6.44268 2.54667C5.86102 2.59417 5.38852 2.6925 4.96352 2.90833C4.25772 3.26789 3.68391 3.84171 3.32435 4.5475C3.10768 4.9725 3.01018 5.445 2.96268 6.02667C2.91602 6.6 2.91602 7.31333 2.91602 8.23083V11.7692C2.91602 12.6858 2.91602 13.4008 2.96268 13.9733C3.01018 14.555 3.10852 15.0275 3.32435 15.4525C3.68391 16.1583 4.25772 16.7321 4.96352 17.0917C5.38852 17.3083 5.86102 17.4058 6.44268 17.4533C7.01602 17.5 7.72935 17.5 8.64685 17.5H11.3518C12.2685 17.5 12.9835 17.5 13.556 17.4533C14.1377 17.4058 14.6102 17.3075 15.0352 17.0917C15.741 16.7321 16.3148 16.1583 16.6743 15.4525C16.891 15.0275 16.9885 14.555 17.036 13.9733C17.0827 13.4008 17.0827 12.6867 17.0827 11.7692V8.23083C17.0827 7.31417 17.0827 6.59917 17.036 6.02667C16.9885 5.445 16.8902 4.9725 16.6743 4.5475C16.3148 3.84171 15.741 3.26789 15.0352 2.90833C14.6102 2.69167 14.1377 2.59417 13.556 2.54667C12.9827 2.5 12.2693 2.5 11.3518 2.5ZM5.34102 3.65083C5.62935 3.50417 5.97935 3.42083 6.51018 3.3775C7.04518 3.33333 7.72602 3.33333 8.66602 3.33333H11.3327C12.2727 3.33333 12.9535 3.33333 13.4877 3.3775C14.0185 3.42083 14.3685 3.50417 14.6568 3.65083C15.2058 3.9305 15.6522 4.37683 15.9318 4.92583C16.0785 5.21417 16.1618 5.56417 16.2052 6.095C16.2368 6.47583 16.246 6.93 16.2485 7.5H3.74935C3.75268 6.93 3.76102 6.475 3.79268 6.095C3.83602 5.56417 3.91935 5.21417 4.06602 4.92583C4.34568 4.37683 4.79202 3.9305 5.34102 3.65083ZM3.74935 8.33333H16.2493V11.75C16.2493 12.69 16.2493 13.3708 16.2052 13.905C16.1618 14.4358 16.0785 14.7858 15.9318 15.0742C15.6522 15.6232 15.2058 16.0695 14.6568 16.3492C14.3685 16.4958 14.0185 16.5792 13.4885 16.6225C12.9535 16.6667 12.2727 16.6667 11.3327 16.6667H8.66602C7.72602 16.6667 7.04518 16.6667 6.51102 16.6225C5.98018 16.5792 5.63018 16.4958 5.34185 16.3492C4.79285 16.0695 4.34651 15.6232 4.06685 15.0742C3.92018 14.7858 3.83685 14.4358 3.79352 13.9058C3.74935 13.3708 3.74935 12.69 3.74935 11.75V8.33333Z" fill="#A3B18A"/>
<path fill-rule="evenodd" clip-rule="evenodd" d="M6.87565 5.41667C6.87565 5.25091 6.9415 5.09193 7.05871 4.97472C7.17592 4.85751 7.33489 4.79167 7.50065 4.79167H12.5007C12.6664 4.79167 12.8254 4.85751 12.9426 4.97472C13.0598 5.09193 13.1257 5.25091 13.1257 5.41667C13.1257 5.58243 13.0598 5.7414 12.9426 5.85861C12.8254 5.97582 12.6664 6.04167 12.5007 6.04167H7.50065C7.33489 6.04167 7.17592 5.97582 7.05871 5.85861C6.9415 5.7414 6.87565 5.58243 6.87565 5.41667ZM5.62565 10.8333C5.62565 10.5571 5.7354 10.2921 5.93075 10.0968C6.1261 9.90141 6.39105 9.79167 6.66732 9.79167C6.94358 9.79167 7.20854 9.90141 7.40389 10.0968C7.59924 10.2921 7.70898 10.5571 7.70898 10.8333C7.70898 11.1096 7.59924 11.3746 7.40389 11.5699C7.20854 11.7653 6.94358 11.875 6.66732 11.875C6.39105 11.875 6.1261 11.7653 5.93075 11.5699C5.7354 11.3746 5.62565 11.1096 5.62565 10.8333ZM12.2923 10.8333C12.2923 10.5571 12.4021 10.2921 12.5974 10.0968C12.7928 9.90141 13.0577 9.79167 13.334 9.79167C13.6103 9.79167 13.8752 9.90141 14.0706 10.0968C14.2659 10.2921 14.3757 10.5571 14.3757 10.8333C14.3757 11.1096 14.2659 11.3746 14.0706 11.5699C13.8752 11.7653 13.6103 11.875 13.334 11.875C13.0577 11.875 12.7928 11.7653 12.5974 11.5699C12.4021 11.3746 12.2923 11.1096 12.2923 10.8333ZM8.95898 10.8333C8.95898 10.5571 9.06873 10.2921 9.26408 10.0968C9.45943 9.90141 9.72438 9.79167 10.0007 9.79167C10.2769 9.79167 10.5419 9.90141 10.7372 10.0968C10.9326 10.2921 11.0423 10.5571 11.0423 10.8333C11.0423 11.1096 10.9326 11.3746 10.7372 11.5699C10.5419 11.7653 10.2769 11.875 10.0007 11.875C9.72438 11.875 9.45943 11.7653 9.26408 11.5699C9.06873 11.3746 8.95898 11.1096 8.95898 10.8333ZM5.62565 14.1667C5.62565 13.8904 5.7354 13.6254 5.93075 13.4301C6.1261 13.2347 6.39105 13.125 6.66732 13.125C6.94358 13.125 7.20854 13.2347 7.40389 13.4301C7.59924 13.6254 7.70898 13.8904 7.70898 14.1667C7.70898 14.4429 7.59924 14.7079 7.40389 14.9032C7.20854 15.0986 6.94358 15.2083 6.66732 15.2083C6.39105 15.2083 6.1261 15.0986 5.93075 14.9032C5.7354 14.7079 5.62565 14.4429 5.62565 14.1667ZM8.95898 14.1667C8.95898 13.8904 9.06873 13.6254 9.26408 13.4301C9.45943 13.2347 9.72438 13.125 10.0007 13.125C10.2769 13.125 10.5419 13.2347 10.7372 13.4301C10.9326 13.6254 11.0423 13.8904 11.0423 14.1667C11.0423 14.4429 10.9326 14.7079 10.7372 14.9032C10.5419 15.0986 10.2769 15.2083 10.0007 15.2083C9.72438 15.2083 9.45943 15.0986 9.26408 14.9032C9.06873 14.7079 8.95898 14.4429 8.95898 14.1667ZM11.3623 2.29167C12.2715 2.29167 12.9932 2.29167 13.574 2.33917C14.169 2.3875 14.6715 2.48917 15.1315 2.7225C15.8762 3.10237 16.4815 3.70827 16.8607 4.45333C17.0948 4.91167 17.1965 5.415 17.2448 6.01C17.2923 6.59083 17.2923 7.3125 17.2923 8.22167V11.7783C17.2923 12.6875 17.2923 13.4092 17.2448 13.99C17.1965 14.585 17.0948 15.0875 16.8615 15.5475C16.4818 16.2921 15.8762 16.8974 15.1315 17.2767C14.6715 17.5108 14.169 17.6125 13.574 17.6608C12.9932 17.7083 12.2715 17.7083 11.3623 17.7083H8.63898C7.72982 17.7083 7.00815 17.7083 6.42732 17.6608C5.83232 17.6125 5.32982 17.5108 4.87065 17.2775C4.12577 16.898 3.52016 16.2924 3.14065 15.5475C2.90648 15.0875 2.80482 14.585 2.75648 13.99C2.70898 13.4092 2.70898 12.6875 2.70898 11.7783V8.22167C2.70898 7.3125 2.70898 6.59083 2.75648 6.01C2.80482 5.415 2.90648 4.9125 3.13982 4.45333C3.51955 3.70832 4.12546 3.1027 4.87065 2.72333C5.32898 2.48917 5.83232 2.3875 6.42732 2.33917C7.00815 2.29167 7.72982 2.29167 8.63982 2.29167H11.3623ZM6.52898 3.585C6.01232 3.62667 5.69148 3.7075 5.43732 3.83667C4.92784 4.0963 4.51362 4.51053 4.25398 5.02C4.12482 5.27417 4.04482 5.595 4.00232 6.11167C3.97565 6.43667 3.96565 6.82 3.96065 7.29167H16.0398C16.0401 6.89797 16.0265 6.50439 15.999 6.11167C15.9573 5.595 15.8765 5.27417 15.7473 5.02C15.4877 4.51053 15.0735 4.0963 14.564 3.83667C14.3098 3.7075 13.989 3.6275 13.4723 3.585C12.9473 3.5425 12.2773 3.54167 11.334 3.54167H8.66732C7.72315 3.54167 7.05315 3.54167 6.52898 3.585ZM16.2482 7.29167C16.2486 6.89241 16.2347 6.49326 16.2065 6.095C16.1632 5.56417 16.0798 5.21417 15.9332 4.92583C15.6535 4.37683 15.2072 3.9305 14.6582 3.65083C14.3698 3.50417 14.0198 3.42083 13.4898 3.3775C12.9548 3.33333 12.274 3.33333 11.334 3.33333H8.66732C7.72732 3.33333 7.04648 3.33333 6.51232 3.3775C5.98148 3.42083 5.63148 3.50417 5.34315 3.65083C4.79415 3.9305 4.34782 4.37683 4.06815 4.92583C3.92148 5.21417 3.83815 5.56417 3.79482 6.095C3.76732 6.42833 3.75732 6.8175 3.75315 7.29167L3.75065 7.5H16.2507L16.2482 7.29167ZM16.0423 8.54167H3.95898V11.75C3.95898 12.6942 3.95898 13.3642 4.00232 13.8883C4.04398 14.405 4.12482 14.7258 4.25398 14.98C4.51362 15.4895 4.92784 15.9037 5.43732 16.1633C5.69148 16.2925 6.01232 16.3725 6.52898 16.415C7.05398 16.4575 7.72315 16.4583 8.66732 16.4583H11.334C12.2782 16.4583 12.9482 16.4583 13.4723 16.415C13.989 16.3733 14.3098 16.2925 14.564 16.1633C15.0735 15.9037 15.4877 15.4895 15.7473 14.98C15.8765 14.7258 15.9565 14.405 15.999 13.8883C16.0415 13.3633 16.0423 12.6933 16.0423 11.75V8.54167ZM8.64815 2.5H11.3532C12.2698 2.5 12.9848 2.5 13.5573 2.54667C14.139 2.59417 14.6115 2.6925 15.0365 2.90833C15.7423 3.26789 16.3161 3.8417 16.6757 4.5475C16.8923 4.9725 16.9898 5.445 17.0373 6.02667C17.084 6.59917 17.084 7.31333 17.084 8.23083V11.7692C17.084 12.6858 17.084 13.4008 17.0373 13.9733C16.9898 14.555 16.8915 15.0275 16.6757 15.4525C16.3161 16.1583 15.7423 16.7321 15.0365 17.0917C14.6115 17.3083 14.139 17.4058 13.5573 17.4533C12.9848 17.5 12.2707 17.5 11.3532 17.5H8.64815C7.73148 17.5 7.01648 17.5 6.44398 17.4533C5.86232 17.4058 5.38982 17.3075 4.96482 17.0917C4.25902 16.7321 3.68521 16.1583 3.32565 15.4525C3.10898 15.0275 3.01148 14.555 2.96398 13.9733C2.91732 13.4008 2.91732 12.6867 2.91732 11.7692V8.23083C2.91732 7.31417 2.91732 6.59917 2.96398 6.02667C3.01148 5.445 3.10982 4.9725 3.32565 4.5475C3.68521 3.8417 4.25902 3.26789 4.96482 2.90833C5.38982 2.69167 5.86232 2.59417 6.44398 2.54667C7.01732 2.5 7.73065 2.5 8.64815 2.5ZM3.75065 8.33333V11.75C3.75065 12.69 3.75065 13.3708 3.79482 13.905C3.83815 14.4358 3.92148 14.7858 4.06815 15.0742C4.34782 15.6232 4.79415 16.0695 5.34315 16.3492C5.63148 16.4958 5.98148 16.5792 6.51232 16.6225C7.04648 16.6667 7.72732 16.6667 8.66732 16.6667H11.334C12.274 16.6667 12.9548 16.6667 13.489 16.6225C14.0198 16.5792 14.3698 16.4958 14.6582 16.3492C15.2072 16.0695 15.6535 15.6232 15.9332 15.0742C16.0798 14.7858 16.1632 14.4358 16.2065 13.9058C16.2507 13.3708 16.2507 12.69 16.2507 11.75V8.33333H3.75065ZM7.08398 5.41667C7.08398 5.30616 7.12788 5.20018 7.20602 5.12204C7.28416 5.0439 7.39014 5 7.50065 5H12.5007C12.6112 5 12.7171 5.0439 12.7953 5.12204C12.8734 5.20018 12.9173 5.30616 12.9173 5.41667C12.9173 5.52717 12.8734 5.63315 12.7953 5.71129C12.7171 5.78943 12.6112 5.83333 12.5007 5.83333H7.50065C7.39014 5.83333 7.28416 5.78943 7.20602 5.71129C7.12788 5.63315 7.08398 5.52717 7.08398 5.41667ZM6.66732 10C6.4463 10 6.23434 10.0878 6.07806 10.2441C5.92178 10.4004 5.83398 10.6123 5.83398 10.8333C5.83398 11.0543 5.92178 11.2663 6.07806 11.4226C6.23434 11.5789 6.4463 11.6667 6.66732 11.6667C6.88833 11.6667 7.10029 11.5789 7.25657 11.4226C7.41285 11.2663 7.50065 11.0543 7.50065 10.8333C7.50065 10.6123 7.41285 10.4004 7.25657 10.2441C7.10029 10.0878 6.88833 10 6.66732 10ZM12.5007 10.8333C12.5007 10.6123 12.5884 10.4004 12.7447 10.2441C12.901 10.0878 13.113 10 13.334 10C13.555 10 13.767 10.0878 13.9232 10.2441C14.0795 10.4004 14.1673 10.6123 14.1673 10.8333C14.1673 11.0543 14.0795 11.2663 13.9232 11.4226C13.767 11.5789 13.555 11.6667 13.334 11.6667C13.113 11.6667 12.901 11.5789 12.7447 11.4226C12.5884 11.2663 12.5007 11.0543 12.5007 10.8333ZM9.16732 10.8333C9.16732 10.6123 9.25512 10.4004 9.4114 10.2441C9.56768 10.0878 9.77964 10 10.0007 10C10.2217 10 10.4336 10.0878 10.5899 10.2441C10.7462 10.4004 10.834 10.6123 10.834 10.8333C10.834 11.0543 10.7462 11.2663 10.5899 11.4226C10.4336 11.5789 10.2217 11.6667 10.0007 11.6667C9.77964 11.6667 9.56768 11.5789 9.4114 11.4226C9.25512 11.2663 9.16732 11.0543 9.16732 10.8333ZM5.83398 14.1667C5.83398 13.9457 5.92178 13.7337 6.07806 13.5774C6.23434 13.4211 6.4463 13.3333 6.66732 13.3333C6.88833 13.3333 7.10029 13.4211 7.25657 13.5774C7.41285 13.7337 7.50065 13.9457 7.50065 14.1667C7.50065 14.3877 7.41285 14.5996 7.25657 14.7559C7.10029 14.9122 6.88833 15 6.66732 15C6.4463 15 6.23434 14.9122 6.07806 14.7559C5.92178 14.5996 5.83398 14.3877 5.83398 14.1667ZM9.16732 14.1667C9.16732 13.9457 9.25512 13.7337 9.4114 13.5774C9.56768 13.4211 9.77964 13.3333 10.0007 13.3333C10.2217 13.3333 10.4336 13.4211 10.5899 13.5774C10.7462 13.7337 10.834 13.9457 10.834 14.1667C10.834 14.3877 10.7462 14.5996 10.5899 14.7559C10.4336 14.9122 10.2217 15 10.0007 15C9.77964 15 9.56768 14.9122 9.4114 14.7559C9.25512 14.5996 9.16732 14.3877 9.16732 14.1667Z" fill="#A3B18A"/>
</svg>
